<svg id="Слой_1" data-name="Слой 1" xmlns="http://www.w3.org/2000/svg" viewBox="0 0 1080 1080"><defs><style>.cls-1{fill:red;}.cls-2{fill:#fff;}</style></defs><path class="cls-1" d="M831.86,0H248.14C111.1,0,0,111.1,0,248.14V500.08a44.24,44.24,0,0,0,40.57,44.07c264.76,22.37,475.89,232,499.35,495.48A44.26,44.26,0,0,0,584,1080H831.86c137,0,248.14-111.1,248.14-248.14V248.14C1080,111.1,968.9,0,831.86,0Z" transform="translate(0)"/><path class="cls-1" d="M44.35,623.24l-3.74,0A41.1,41.1,0,0,0,0,664.16v22.65a40.86,40.86,0,0,0,41.66,40.82c1.72,0,3.44,0,5.17,0,166,0,300.61,139,300.61,310.55v.68A40.94,40.94,0,0,0,388.3,1080h27.54a41.1,41.1,0,0,0,40.9-40.61c0-1.24,0-2.49,0-3.74C456.76,807.88,272.12,623.24,44.35,623.24Z" transform="translate(0)"/><path class="cls-1" d="M34.8,790.32l-3.24,0A32,32,0,0,0,0,822.18H0a31.81,31.81,0,0,0,32.58,31.74c1.24,0,2.49,0,3.74,0,101.12,0,183.1,84.69,183.1,189.16,0,1.43,0,2.86,0,4.28A31.83,31.83,0,0,0,251.12,1080h3a32.1,32.1,0,0,0,31.79-31q.11-3.73.11-7.5C286,902.79,173.54,790.32,34.8,790.32Z" transform="translate(0)"/><rect class="cls-1" y="951.94" width="128.06" height="128.06" rx="48.19"/><path class="cls-2" d="M664.53,219.86l82.4,122.33a38.17,38.17,0,0,0,63.32,0l82.39-122.33c24.72-36.69-1.42-86.25-45.5-86.25H710C666,133.61,639.82,183.17,664.53,219.86Z" transform="translate(0)"/><path class="cls-2" d="M735.2,428.11,645.94,745.76c-7.11,25.32-2,53.39,13.15,72.67l87.22,110.73c18.1,23,47.71,23,65.8,0l87.22-110.73c15.19-19.28,20.27-47.35,13.15-72.67L823.22,428.11C810.73,383.64,747.7,383.64,735.2,428.11Z" transform="translate(0)"/></svg>